<?xml version='1.0' encoding='UTF-8' standalone='no'?>
<!-- Created with Fritzing (http://www.fritzing.org/) -->
<svg xmlns="http://www.w3.org/2000/svg" width="0.2in" x="0in" version="1.2" y="0in"  height="0.33in" viewBox="0 0 200 330" baseProfile="tiny" xmlns:svg="http://www.w3.org/2000/svg">
    <desc>
        <referenceFile>generic_ic_dip_4_300mil_bread.svg</referenceFile>
    </desc>
    <g  id="breadboard">
        <rect width="200" x="0" y="30" fill="#303030"  height="270" id="middle"/>
        <rect width="200" x="0" y="30" fill="#3D3D3D"  height="24.6" id="top"/>
        <rect width="200" x="0" y="275.4" fill="#000000"  height="24.6" id="bottom"/>
        <polygon fill="#141414" points="200,30,192.5,54.6,192.5,275.4,200,300"  id="right"/>
        <polygon fill="#1F1F1F" points="0,30,7.5,54.6,7.5,275.4,0,300"  id="left"/>
        <polygon fill="#1C1C1C" points="50,115,7.5,114.6,5.6,135.8,5.6,165,50,165"  id="left-upper-rect"/>
        <polygon fill="#383838" points="7.5,215.5,50,215.5,50,165,5.6,165,5.6,194.2"  id="left-lower-rect"/>
        <path fill="#262626"  id="slot" d="M5.6,135.8l0,58.3c14.7,-1.7,26.2,-14,26.2,-29.2C31.8,149.7,20.4,137.5,5.6,135.8z"/>
        <path fill="#303030"  id="cover" d="M7.5,54.6L7.5,114.5c23.8,4.5,41.9,25.3,41.9,50.4c0,25.1,-18,46,-41.9,50.5L7.5,215.5l50,0L57.5,54.6L7.5,54.6z"/>
        <circle fill="#212121" cx="65"  cy="234.7" r="20.6"/>
        <text x="65" y="165" fill="#e6e6e6" font-family="OCRA"  text-anchor="start" stroke="none" id="label" font-size="80">IC</text>
        <rect width="30" x="35" y="286.6" fill="#8C8C8C"  height="43.4" id="connector0pin"/>
        <rect width="30" x="35" y="300" fill="#8C8C8C"  height="30" id="connector0terminal"/>
        <polygon fill="#8C8C8C" points="35,286.6,35,306.6,65,306.6,85,297.4,85,286.6" />
        <rect width="30" x="35" fill="#8C8C8C"  height="43.4" id="connector3pin"/>
        <rect width="30" x="35" fill="#8C8C8C"  height="30" id="connector3terminal"/>
        <polygon fill="#8C8C8C" points="85,43.4,85,32.6,65,23.4,35,23.4,35,43.4" />
        <rect width="30" x="135" y="286.6" fill="#8C8C8C"  height="43.4" id="connector1pin"/>
        <rect width="30" x="135" y="300" fill="#8C8C8C"  height="30" id="connector1terminal"/>
        <polygon fill="#8C8C8C" points="115,286.6,115,297.4,135,306.6,165,306.6,165,286.6" />
        <rect width="30" x="135" y="0" fill="#8C8C8C"  height="43.4" id="connector2pin"/>
        <rect width="30" x="135" y="0" fill="#8C8C8C"  height="30" id="connector2terminal"/>
        <polygon fill="#8C8C8C" points="165,43.4,165,23.4,135,23.4,115,32.6,115,43.4" />
    </g>
</svg>
